<?xml version="1.0" encoding="utf-8"?>
<!-- Generator: Adobe Illustrator 21.1.0, SVG Export Plug-In . SVG Version: 6.00 Build 0)  -->
<svg version="1.1" id="Layer_1" xmlns="http://www.w3.org/2000/svg" xmlns:xlink="http://www.w3.org/1999/xlink" x="0px" y="0px"
	 viewBox="0 0 267.2 173.3" style="enable-background:new 0 0 267.2 173.3;" xml:space="preserve">
<style type="text/css">
	.st0{opacity:0.8;}
	.st1{fill:#5C5C5C;}
	.st2{fill:#FFFFFF;}
</style>
<g>
	<g>
		<g class="st0">
			<path class="st1" d="M262,98.2c-5.7-3.3-11.6-4.2-17.5-3.3c-1.1,0.1-2.3,0-3.4-0.2c-1.1-0.1-2.2-0.4-3.3-0.7
				c-0.6-0.2-1.1-0.4-1.7-0.6c-0.6-0.2-1.1-0.4-1.7-0.6c-1.1-0.4-2.3-0.9-3.4-1.4c-4.6-1.9-9.5-4.2-14.8-4.6c-0.7-0.1-1.3-0.2-2-0.3
				c-0.6-0.1-1.3-0.1-1.9-0.1c-1.3-0.1-2.5-0.1-3.8,0c-2.5,0.2-5,0.4-7.4,0.8c-5.5-1.2-11.4-1.4-17.2-0.8
				c-5.8,0.6-11.8,2.3-17.5,5.1c-1.5,0-6,0.3-2.5,6c-12.9,1.9-26.7,4.7-36,14.8c-4.3,3.6-12.4,2.2-16.9,5.9
				c-6.7,7-18.5,6.1-26.4,11.4c-0.7,1.5-1.5,6-2.8,6.2c-7.5,0.1-12.8,3.7-17.9,8.5c-5,4.8-10,10.6-16.1,14.8
				c-2.5,1.4-4.6,2.8-6.9,3.8c-1.1,0.6-2.3,1.1-3.5,1.5c-1.2,0.4-2.5,0.7-3.9,0.9c0.1,3-1.3,2.8-2.7,4.2c-1,0.3-3.4,0.2-6.4-0.1
				c-1.5-0.1-3.1-0.4-4.8-0.7c-1.7-0.3-3.5-0.7-5.2-1.1c-7-1.8-13.4-4.8-14.4-6.7c-0.2-0.5,2.5-0.9,6.6-1.4c2.1-0.3,4.5-0.7,7-1.1
				c2.5-0.5,5.3-1,7.9-1.6c10.7-2.6,20.4-6.7,19.5-8.3c-0.2-0.2-0.7-0.2-1.5-0.1c-0.8,0.1-1.9,0.3-3.2,0.6c-2.6,0.6-6,1.4-9.4,2.2
				c-3.5,0.7-7,1.4-9.9,1.8c-1.4,0.2-2.7,0.4-3.7,0.4c-1,0-1.7,0-2-0.1c0.8-0.3,1.5-0.6,2.3-0.9c0.7-0.3,1.5-0.7,2.2-1
				c1.4-0.7,2.8-1.3,4.1-2c1.3-0.7,2.6-1.4,3.8-2.1c1.2-0.7,2.4-1.3,3.5-2c2.2-1.4,4.3-2.7,6.2-4c1.9-1.3,3.6-2.6,5.2-3.8
				c3.2-2.5,5.8-4.8,8.1-6.8c2.2-2.1,4.1-3.9,5.5-5.5c1.5-1.6,2.7-3,3.6-4.1c0.9-1.1,1.5-2,2-2.7c0.8-1.3,0.8-1.8,0.2-1.5
				c-1.3,0.5-5.2,3.8-10.2,8c-5,4.2-11.4,9.4-17.5,13.9c-1.1,0.1-2.2,0.5-3.4,1.2c-0.6,0.3-1.2,0.7-1.9,1.1
				c-0.7,0.4-1.4,0.8-2.1,1.2c-2.9,1.8-6.6,3.6-11,4.1c1.3-0.7,2.8-2.1,4.4-3.6c0.8-0.8,1.6-1.6,2.4-2.5c0.8-0.9,1.5-1.8,2.3-2.7
				c2.9-3.5,5.2-6.9,6.2-7.4c1.1-0.8,2.1-1.7,2.9-2.5c0.8-0.8,1.4-1.5,2-2.2c1.1-1.4,1.9-2.6,2.8-3.7c1.7-2.2,3.7-3.7,9.1-5.5
				c4.4-1.4,9.5-5.9,13.9-10.8c4.4-4.9,8.3-10.1,11.2-13c-0.5,3.3-1.5,8.6-3.2,13.4c-1.8,4.7-4.3,8.9-7.5,9.6c1.9,0,3.4-0.4,4.7-1
				c1.3-0.6,2.3-1.4,3.1-2.4c1.6-2,2.5-4.5,3.2-7.3c0.8-2.7,1.4-5.6,2.7-8.1c1.3-2.5,3.1-4.7,6.3-6.2c1.1-0.7,2.1-2.1,2.9-3.9
				c1.7-0.2,3.3-0.5,5.4-0.8c10.3-5.9,16.6-15.9,28.2-20.8c-0.8,0.7-3.2-1.8-4.3-1.6C98,64,94.6,74.9,84.8,79.3
				c-2.2,0.3-1.9,6-3.7,7.2c-3.5,2.5-8.5,1.7-12.7,2c2.3-3.7,5.4-6.6,9-9.2c3.6-2.6,7.4-5,10.9-7.8c1.3-1.4,1.3-5.4,1.6-7.7
				c-3.7,2-7.2,4-10.6,6.3c-2.8,2.2-5.3,5.2-7.7,8.4c-1.2,1.6-2.4,3.2-3.6,4.9c-1.2,1.6-2.4,3.2-3.6,4.7c-4.9,6-10.3,10.4-16.3,8.2
				c-0.1,0.3-0.3,0.7-0.6,1.4c-0.3-0.3-0.5-0.4-0.8-0.4c-1.5,0.9-3.7,1.2-6.2,0l4.6-1.3c3.6-7.4,8.9-11.5,14.9-15.3
				c1.5-1,3-1.9,4.6-2.9c1.5-1,3.1-1.9,4.6-3c3.1-2.1,6.1-4.5,8.8-7.4c2-3.2,9.9-1.5,12-4.8c3.5-4.2,7.9-7.6,12.9-10.2
				c5-2.6,10.8-4.3,16.8-5.3c10.6-2.4,21.6-4.5,32.7-5.7c2.8-0.3,5.6-0.5,8.4-0.7c2.8-0.1,5.6-0.2,8.4-0.3c2.8,0,5.5,0.1,8.3,0.2
				c2.8,0.2,5.5,0.3,8.2,0.6c21.6,2.2,41.7,9.1,58.4,19.8c0.8-0.1,1.6-0.1,2.4-0.1c-0.3-0.7-0.6-1.4-0.9-2.1
				c0.7,0.7,1.4,1.4,2.1,2.1c2.2,0.1,4.4,0.6,6.5,1.4c2.1,0.9,4,2.4,5.8,4.6c1.3,2.6-3-0.3-4.6,2c0.9,0.6,1.7,1.1,1.7,1.1
				s-0.4,1.4-0.7,2.9c0.8-0.6,1,1.3,1.3,2.4c-8.7-1.3-17.6-1.3-26.6-1.4c1.1,4,3.7,3.2,4.9,3.8c2.9-0.8,5.8-1.7,8.4-0.1
				c0.9,0,1.8,0,2.8,0.2c0.9,0.2,1.8,0.5,2.7,0.9c0.9,0.4,1.8,0.8,2.6,1.3c0.9,0.5,1.7,1.1,2.5,1.7c1.7,1.2,3.3,2.5,4.8,3.7
				c1.6,1.2,3.1,2.3,4.6,3.2c0.9,1.4,1.8,3,2.6,4.8c0.3,0.7,0.3,1.4-0.1,2.1c-0.2,0.3-0.4,0.7-0.7,1c-0.2,0.3-0.5,0.6-0.8,0.9
				C264.4,98.5,262.9,99.1,262,98.2z M139.1,58.7c1.8,0.1,3.7,0.4,5.5,0.8c1.9,0.4,3.8,0.8,5.7,1.3c1.1-0.2,2.2-0.4,3.3-0.6
				c1.4-0.1,2.6-0.8,3.7-1.9c6.2-0.2,12.4,0.2,18.4,0.7c-7.1-3.6-14.8-6.2-22.2-4.6c8.8-3.5,18.7-3.1,28-0.8
				c9.4,2.3,18.3,6.4,26.6,9.8c4.8,0.6,9.5,1.2,14.3,1.5c1.7,0,3.3-0.1,4.9-0.4c0.8-0.1,1.6-0.3,2.4-0.5c0.8-0.1,1.6-0.3,2.4-0.5
				c-5.1-2-10.4-3.9-15.9-5.7c-5.5-1.7-11.2-3.4-17.1-4.8c-11.7-2.8-24.3-4.6-37.2-4.5c-12.9,0-25.8,1.7-38,4.6
				c-6.1,1.5-12,3.2-17.6,5.3c-5.6,2-11,4.3-16.1,6.8C106.5,63.6,121.7,59.4,139.1,58.7z M136.2,65c-5.7,2.3-10.9,5.2-15.8,8.4
				c-7.1,3.6-14.4,7.5-20.2,12.2c-5.8,4.7-10.3,10-12,16.8c9.8-10,19.7-20.6,32.2-29c-6.4,3.2-7.1,3.9-4.3,2.5
				c2.9-1.4,9.4-4.8,18-9.3C134.4,66,135.2,65.5,136.2,65z"/>
			<path class="st1" d="M222.5,45.9c6.9,4.5,13.4,8.6,19.2,13.9c-2.1-4.5-4.2-8.9-7.1-12.4c-2-2-4.1-3.5-6.2-4.7
				c-2.2-1.1-4.4-2-6.7-2.8c-2.3-0.7-4.6-1.3-6.9-2c-2.3-0.6-4.6-1.3-7-2.3c-1.7-0.7-3.4-1.3-5.2-1.9c-1.7-0.6-3.5-1.1-5.3-1.6
				c-3.5-0.9-7.2-1.7-10.8-2.2c-7.3-1.1-14.7-1.3-22.2-0.8c-7.5,0.6-14.9,2-22,3.9c-7.1,1.9-13.9,4.5-20.4,7.3
				c-1.5,0.2-4.5,1.2-5.8,3.4c8.7-2.5,17.5-4.9,26.5-6.6c9-1.8,18.3-2.9,27.5-3C188.4,33.9,206.4,37.6,222.5,45.9z"/>
			<path class="st1" d="M75.9,58.8c-1.5,1.7-3.1,3.4-4.7,4.8c-0.8,0.7-1.6,1.4-2.5,2c-0.8,0.6-1.7,1.1-2.6,1.6
				c2.4,0.4,4.8,0.2,7.1-0.5c2.2-0.6,4.4-1.7,6.3-2.7c4.8-3.6,9.7-7.4,15-10.7C87.8,54.3,81.4,55.8,75.9,58.8z"/>
			<path class="st1" d="M116.2,43.9c-1.4,0.4-2.8,0.8-4.2,1.2c-6.3,1.9-12.1,4.8-17.4,8.1c7.2-1.1,14.8-1.8,22.2-3
				C115.1,47.5,115.2,45.4,116.2,43.9z"/>
		</g>
	</g>
	<g>
		<path class="st2" d="M88.4,65.3c-1.6,1.3-1.2,4.9-3.6,5.7c-0.1,3.3-3,3.9-3.1,7.2c-3,2.4-4.2,6.4-6.1,9.8h-1.5
			c-0.9,1.5-1.2,2.7-1.6,4c-0.1,0.6-2.2,2.4,0,2.1c0,1.2-1.2,1.2-2.5,1c-0.1,1.3-1,3.3-3.1,4.2v1.9c-1.2,0.6-2.4,1-2.5,2.7
			c-0.3,0.7,2.4,0.7,2.1,0c1.6,0.9-1.5,1.5-2.1,1.9c0.1,2.2-2.2,1.6-1,3.7c-2.5,0.9-2.8,4-5.1,5.1c-0.4,0.7,0,1.6,0,1.5
			c-0.3,0.7-0.7,0.1-1,0.6c-0.3,0.3,0.1,1.2,0,1.5c-0.4,0.9-1.3,2.8-2.5,3.1c0,0.4,0,1,0.4,1c-0.9,1.2-2.1,2.1-3.1,3
			c0.1,1.2,1.9,0.1,2.7,0.6c0.3,0.3-0.3,0.9,0.4,1c2.5,0.3,12.1-2.1,20.6-3.6c2.5-0.4,4.6-0.9,7.2-1c1.9-0.1,4-0.9,5.7-1
			c8.5-0.7,15.1-0.9,23.1-1.5c0.3-1.3-2.2,0.1-1.5-1.6c8.9,0.4,18,0.9,26.7,1.6c0.3,0,0.6,0.3,0,0.4h-2.1c-2.5,1-5.5,0.9-8.2,1.5
			c-0.7,0.3-1.3,0.9-2.1,1c-0.9,0.1-1.9,0-3,0c-1.9,0.1-3.6,0.9-5.2,1c-0.6,0-1.2-0.6-1.5-0.4c-5.1,0.4-10.3,2.1-15.3,2.5
			c-1.2,0.1-2.2-0.1-3.1,0c-1,0.1-2.1,0.9-3.1,1c-0.9,0.1-1.6-0.6-2.5-0.6c-0.6,0.1-1.5,0.9-2.5,1c-2.4,0.4-3.3,0.7-4.6,1
			c-0.9,0.1-1.8-0.1-2.7,0c-1.5,0.3-2.5,1.2-4,1.5c-0.9,0.3-1.8-0.1-2.5,0c-1.3,0.3-2.8,1.3-4.2,1.6c-2.1,0.3-3,0-4.2,0.4
			c-1.6,0.9-3.3,1.5-5.5,2.1c-1.6,0.4-3.3,0.6-4.6,1c-3,0.9-4.9,2.4-7.3,3.1c-2.5,0.6-4,1.6-6.1,1.9c-0.6,1.2-0.3,3.1-1,4.2
			c-0.9-0.4-0.6-2.2-1-3.1c-0.4,1.9-2.2-0.3-2.1,1.6c-0.6-0.1-0.4-0.9-0.4-1.6c-2.5,1-6,2.5-9.8,4.2c-4.2,1.9-12.2,7-13.9,1
			c-2.1-0.7-4.8-3.3-4-5.2c0.9,0,1.5,0.1,2.1,0.6c5.2-2.5,10.3-6.1,15.3-7.7c0.9-0.3,2.7-0.1,3.6-0.4c4.2-1.3,7.5-3.1,11.3-4.2
			c1.3-1.6,1.2-4.6,3.6-5.1c0-1.8,0.4-4.5,1-5.2c1-1.2,1.9-1.9,2.5-3.1c0.3-0.3,0.9-0.6,1-0.9c0.6-1.3,0.6-3.3,0.6-3.1
			c0.4-1,1.5-2.4,1.9-3.1c0.1-0.3,0.3-1,0.6-1.5c0.7-1.2,2.4-1.8,3-3.1c0.3-0.3-0.4-0.7-0.4-1l1-1c0.3-0.9-0.1-2.1,1.5-2.5
			c0.1-1.3-1.9-0.4-1.5-2.1c1.8-5.4,3.9-10.1,5.1-15.3c1-0.9,1.6-2.2,2.7-3.1c0.1-1.5,0.6-3.7,0.9-4c1-1,0.7-2.7,1-3.6
			c0.3-0.7,1.2-0.9,1.6-1.6c0.3-0.9,0.1-2.1,0.4-3c0.4-0.9,1.2-1.2,1.6-2.1c0.7-1.8,1.2-3.9,1.9-5.7c1.6-3.6,3.6-6.9,5.2-10.3
			c1.5-3.6,3-7.2,4.6-10.9c1.6-3.4,4-7,4-11.2c2.8-2.2,1.5-6.7,3.7-8.3c0-10.4,4.8-7.3,5.7-17c1.8,0.3,2.8-0.1,3-1.5
			c3.4,0.7,5.8,2.5,8.8,3.6c1.3,5.4,2.7,5.8,0,8.8c0.1,2.2-0.7,2.5,0,4.2c-0.7,0.1-1.3,0.7-2.1,1c0,4.6-3.9,5.4-3.1,10.7
			c-1.2,1.5-3.1,3.3-2.1,5.7c-3.1-0.3-1.5,4.2-5.1,3.6c0.1,1.9,1.8,2.1,3.1,1.5c-0.3,1.5-1.6,1.9-3.1,2.1c0.9,2.1,1,0.7-0.4,2.1
			c-0.4,0.3-0.1,1.6-1.6,1c-0.1,0.9,0.6,1,0.6,2.1h-2.7c0.1,1.8,0.7,1.2,2.1,1c0,1-0.7,1.8-1,1.9c-0.3,0.4,0,0.6,0,0.6
			c-1,1.6-1.9,1.8-3,3.6c1.3,1.5,2.4-1.8,4-1.5c-0.9,0.3-0.1,2.2-0.4,2.5c-0.1,0.1-0.9-0.1-1,0c-0.6,0.9-1.2,1.8-1.5,3
			c-1.2-0.1-2.1,0.1-2.7,0.6c2.5,1.3-0.1,2.1,1,4.6C89.9,63.8,87.1,63.6,88.4,65.3z M58.2,97.2c0.1,0.1,0.7-0.3,0.4-0.6
			C58.5,96.4,57.9,96.9,58.2,97.2z M63.8,84.8c-2.2,0.3-1.9,2.5-2.7,4.2c-0.6,1.8-2.8,5.2-1.5,6.7c0.9-1.3,0.7-3.7,1.5-5.2
			c0.4-0.9,1.8-1.3,2.1-2.1c0.1-0.4-0.1-1,0-1.5c0.3-0.7,2.7-3.4,0.6-3.6V84.8z M69.9,90c-0.1,0.3-1.3,1.9,0,1.9
			C70.1,91.6,71.3,90,69.9,90z M76,81.7c0.3,1.3-0.9,1.2-0.4,2.7C77.7,84.6,77.2,82.3,76,81.7z M77.7,77.6c-0.3,1.5-1.8,1.6-1.6,3.6
			C77.7,81.5,79.9,77.9,77.7,77.6z M80.2,69.4c-1.3-0.1-1.6,0.7-2.1,1.5C79.5,71.1,79.8,70.2,80.2,69.4z M80.7,73
			c-1.3,0.1-2.1,0.9-1.9,2.5C80.1,75.4,80.8,74.7,80.7,73z M79.2,77c0.1,0.7,0.6,0.4,1,0C80.2,76.6,79.3,76.4,79.2,77z M80.7,65.3
			c0.1,0.1,0.9-0.3,0.6-0.4C81.1,64.7,80.5,65,80.7,65.3z M82.7,71.5c0.1-1.2-0.1-1.9-1-2.1c-0.1,0.6-0.7,0.9-0.4,2.1H82.7z
			 M84.4,66.9c0.3,1.5-0.9,1.5-0.6,3C85.1,70.2,86.3,66.5,84.4,66.9z M84.4,64.2c0.1,0.1,0.7-0.1,0.4-0.4
			C84.7,63.6,84.1,63.9,84.4,64.2z M86.9,60.6v-1.5c-0.9,0-1.6,0.1-2.1,0.4C84.4,61.2,86,60.5,86.9,60.6z M94.1,48.9
			c0.3,0.3-0.3,0.6-0.4,0.4C93.3,49.2,93.9,48.7,94.1,48.9z"/>
		<path class="st2" d="M89.8,101.2c-0.4-3.4-2.2-6.6-1.9-10c0.1-0.9,0.9-1.5,1.2-2.7c0.6-1.8,0.3-4.3,0.7-5.7c0.6-1.6,3-2.5,2.7-5.4
			c2.8-2.8,4-7.2,7.3-9.5c-0.1-1,0.6-0.9,0.3-1.9c1.8-0.4,1.8-2.7,3.9-2.7c0.7-0.7,0.9-1.9,1.9-2.4c3.3,2.7,7.3,4.5,10.3,7.3
			c-1.3,2.2-3.6,0.3-5.7,0.7c-0.6,0.1-0.9,1.2-1.9,0.7c0.3,1.2,1.8,1.3,2.7,1.9c0.3,0.3,0.6,0.9,1,1.2c2.1,1.3,4.8,3.4,5.8,6.1
			c2.7,1.6,4.6,4,6.1,6.9c0.4,0.7,0.9,1.6,1.9,1.9c-0.1,0.6-0.1,3.6,1,3.9c-0.1,6.6-5.4,11.2-9.5,14.9c-1.3,1.2-1.2,1.2-3,2.2
			c-2.7,1.5-4.9,2.7-8.5,3.1c-3.3,0.3-4.8-0.1-7.9-1.6c-4-1.8-7.9-4.3-9.7-8.3C88.4,101,89.2,101.2,89.8,101.2z M98.5,83.9
			c-0.1,0.1,0.1,0.6,0,0.7c-0.1,0.3-1,0.6-1.2,0.9c-0.3,0.4,1,2.1-0.7,1.5c0.9,3.9-3.4,5.8-1,8.8c-0.7,0-1,0.3-1.2,0.7
			c1.6,0.9-0.1,3,0.3,4.9c0.7,2.8,3.4,4.5,5.8,4.6c4.8,0.3,10.3-4.8,12.7-7.6c1.3-1.6,1.8-2.2,1.8-3.4c-1.2-2.5-2.2-5.1-4.2-6.9
			c0.9,0,0.1-1.5,0.4-1.9c-3-2.5-4.5-6.6-8.5-8c-1.5,1.5-2.2,4.2-3.4,5.7C99.3,84,98.7,83.9,98.5,83.9z"/>
		<path class="st2" d="M173.1,77c0.3,0.1-0.3,0.3-0.3,0.7c0,0.7-0.3,0.9-0.7,1.9c-0.3,0.4,0.1,1,0,1.5c-0.1,0.3-1,0.4-1.2,0.7
			c-0.1,0.3,0.6,0.7,0.3,1.2c0,0.3-0.9,1.2-1,2.2c0.3,1.5-1.8,0.3-1.6,1.6c1,0.1,1.9,1.3,0,1.5c-0.4,1.2,1.3,0.3,0.9,1.5
			c-2.1,2.5-2.4,4.3-3.3,7.3c1.6,0.4,3.7-1.9,6.6-1.5c-3.4,2.4-8.3,3.1-8.8,8.3c-0.9-0.1-1.5,0.1-1.6,0.7c0.1,0.4,0.7,0.3,1.2,0.4
			c-1.2,1-3,2.5-3.9,4.5c0,0.6,2.4,0.6,1.2,1.2c0.4,1.3-1.2,0.6-1.9,0.7c0.3,1.3-0.3,1.8-0.3,2.7c0.3,1.2,0.4-0.9,1.5-0.3
			c0,1.3-0.6,1.9-1.9,1.8c-0.1,0.7,0.3,0.7,0.7,0.9c0.4,0.9-1.2,0.3-1.5,0.7c-0.1,0.1,0.1,0.9,0,1c0,0.1-1.5,2.1-1.5,2.4
			c0,0.1,0.9,0.4,1,0.3c-0.1,0.6-0.7,0-1,0.4c-0.6,0.4,0,2.1-0.7,3.4c-0.1,0.1-1.2,0.1-1.2,0.4c-0.4,1.3-0.3,3.6-0.7,5.4
			c-0.4,0.1-0.9,0.3-1.6,0.3c0.1,0.4,0.9,0.3,0.9,0.7c-1.3,1.6-0.6,3-2.7,3.9c0.7,2.8-1.5,4.3-0.7,6.4c-0.1,0.7-0.7,0.9-1.6,0.9
			c1.5,3.3-3.1,4.2-1.9,7.2c-1.8,0.6-1.5,3.3-3.4,3.9c0,2.2-1.9,2.5-1.8,4.9c-1.5,0-0.9,2.1-2.7,1.6c0.4,2.5-1.8,2.5-1.6,4.9
			c-3.7,1.6-7.9,5.8-14,6.9c-0.7,0.1-7.3,1.5-7.2,0c-10.6-0.7-13.3-5.5-15.1-11.8c0-0.6,0-1.2-0.4-1.2c0.1-1.2,0-2.4,0-3.4
			c0.1-1.2,0.9-2.7,1.2-4.2c0.1-1-0.3-1.9,0-2.7c0.1-0.6,1.2-1.3,1.5-1.9c1-1.9,0.7-4,2.7-3.9c0.3-3.7,4-4.2,4.6-7.6
			c2.1-0.1,2.7-1.8,4.2-2.7c0.6-3.1,3.7-3.7,4.9-6.1c1.2,0.4,2.4-0.4,2.7-1.9c0.9,0.1,1.5,0,1.9-0.4c2.7-2.7,6.3-4.5,8.5-7.6
			c0.7,0.1,0.9-0.3,1.5-0.3c0.6-0.4,1.2-0.6,1.2-1.6c3.3-0.4,5.1-4.5,7.9-4.2c1.8-1.2,3.7-2.4,6.1-3c3.1-1.6,3.3-7.9,5.1-13.4v-0.1
			c-1.8,2.4-3.4,4.8-5.4,6.9c-0.3,0.3-0.4,0.9-0.7,1.2c-2.8,2.8-7.3,3.7-8.2,5.7c-3.4,0.9-3.1-0.4-6.3-0.7c-0.6-1.9-2.7-2.4-3.9-3.7
			c-1.2-3.3-2.5-9.2-0.6-12.2c-0.4-4,1.8-9.5,3.3-13.7c0.7-1.9,1.6-4,2.5-5.8c1-1.8,2.4-3.4,3.3-4.8c2.4-3.1,6.6-5.7,8.3-6.9
			c2.7,0,1.3-0.6,5.2-2.2c0.7-0.1,0.9-0.3,1.6-0.3c2.7-0.3,4.3-0.4,5.8,0.7c1,0.7,1.8,0.9,2.4,2.1c1,0.4,0.7,0.7,1.8,0.9
			c1.3,3.4,5.8,2.7,7.6,5.8c-0.7,1.8-3.4,1.6-4.6,1.5c-1.8-0.1-3-1.9-6.1-1.5c-4.5,0.7-11.5,7.2-14.5,10.7c-0.3,0.3-0.6,0.4-0.9,0.7
			c-1.8,2.8-4.3,6.3-5.5,10c-1,3-0.9,6.4-1.6,10.3c3.3-2.7,7.6-5.5,10.1-9.2c1.2-1.9,3.3-3.6,4.9-5.5c2.4-3,3.6-6.9,7.3-8.6
			c-0.3-1.8,1.2-3.7,2.7-4.9c4.9,1.8,8.2,2.7,11.3,6.1c0,0.1-0.1,0.1-0.1,0.1H173.1z M144.3,123.7c-0.7-2.5,1.9-4.3,1.9-7.3
			c0.7-0.3,1.6-1.8,0.3-1.9c-1.6,1.9-3.3,3.9-6.1,4.6c-0.9,1.6-2.4,2.7-4.2,3.4c-4.9,6-11.9,9.7-16.4,16.1c-0.7,0-1.2,0-1.6,0.3
			c-0.4,2.7-3.6,5.7-4.9,8c-0.6,1.2-2.2,2.8-2.7,3.9c-0.3,0.9-1.2,5.1-1.2,5.4c0.1,0.9,0.7,5.1,0.9,6.3c2.5,5.1,3.7,3.7,7.3,3
			c2.7,0.1,4.6-2.5,6-2.4c0.3-1.3,1.2-2.7,1.9-3.4c1.9-1.8,2.8-4.5,3.9-6.6c0.1-0.4,0.9-0.7,1-1c0.4-0.7,0.4-1.9,0.9-2.7
			c0.3-0.7,1.5-1.3,1-2.4c0.6-0.1,1-0.6,1.6-0.7c0.1-3,1.6-4.6,3-6.6c0.9,0.1,1.5,0,1.5-0.7c-0.4-0.9-1,0.7-1.5-0.3
			c1.5-2.5,2.8-5.2,3.4-8.5C142.8,129.2,141.9,124.7,144.3,123.7z M134.3,163.3v1.2h0.7v-1.2H134.3z M141.6,136.2
			c-1,0-1.3,0.6-1.2,1.6C141.8,138.1,141.8,137.2,141.6,136.2z M151.1,120.3v0.7h0.7v-0.7H151.1z M161.9,109.1
			c-0.9-0.1-0.3-1.8,0.3-0.7C162.2,108.6,161.9,108.8,161.9,109.1z"/>
		<path class="st2" d="M170.8,101.2c-0.4-3.4-2.2-6.6-1.9-10c0.1-0.9,0.9-1.5,1.2-2.7c0.6-1.8,0.3-4.3,0.7-5.7
			c0.6-1.6,3-2.5,2.7-5.4c2.8-2.8,4-7.2,7.3-9.5c-0.1-1,0.6-0.9,0.3-1.9c1.8-0.4,1.8-2.7,3.9-2.7c0.7-0.7,0.9-1.9,1.9-2.4
			c3.3,2.7,7.3,4.5,10.3,7.3c-1.3,2.2-3.6,0.3-5.7,0.7c-0.6,0.1-0.9,1.2-1.9,0.7c0.3,1.2,1.8,1.3,2.7,1.9c0.3,0.3,0.6,0.9,1,1.2
			c2.1,1.3,4.8,3.4,5.8,6.1c2.7,1.6,4.6,4,6.1,6.9c0.4,0.7,0.9,1.6,1.9,1.9c-0.1,0.6-0.1,3.6,1,3.9c-0.1,6.6-5.4,11.2-9.5,14.9
			c-1.3,1.2-1.2,1.2-3,2.2c-2.7,1.5-4.9,2.7-8.5,3.1c-3.3,0.3-4.8-0.1-7.9-1.6c-4-1.8-7.9-4.3-9.7-8.3
			C169.5,101,170.2,101.2,170.8,101.2z M179.6,83.9c-0.1,0.1,0.1,0.6,0,0.7c-0.1,0.3-1,0.6-1.2,0.9c-0.3,0.4,1,2.1-0.7,1.5
			c0.9,3.9-3.4,5.8-1,8.8c-0.7,0-1,0.3-1.2,0.7c1.6,0.9-0.1,3,0.3,4.9c0.7,2.8,3.4,4.5,5.8,4.6c4.8,0.3,10.3-4.8,12.7-7.6
			c1.3-1.6,1.8-2.2,1.8-3.4c-1.2-2.5-2.2-5.1-4.2-6.9c0.9,0,0.1-1.5,0.4-1.9c-3-2.5-4.5-6.6-8.5-8c-1.5,1.5-2.2,4.2-3.4,5.7
			C180.4,84,179.8,83.9,179.6,83.9z"/>
		<path class="st2" d="M221.3,107.9c3.3-1.2,8.2-0.4,8.6,2.7c-0.7,1.8-2.2,2.8-3.7,3.9c-0.6,2.1-2.2,3.1-2.2,6
			c-0.7,0.9-1.3,1.9-2.7,2.2c-0.6,2.1,2.1,2.2,0.4,3.7c-1.6,0.3-3-1.8-3.7-3.3c-1.3-2.4-2.2-7.6-1.6-12.5c0.1-1.2,1.3-2.7,0.6-3.7
			C217.9,105.7,219.8,107.9,221.3,107.9z M245.8,32.3c3.1,1.6,8.9,0.1,10.3,3.3c1.5,2.4-1.2,2.8-1.6,4.9c-2.8,6.3-5.5,12.8-7.6,20.1
			c-2.1,1.6-3.1,4.3-3.7,7.6c-2.2,1.9-3.6,4.8-4.3,8c-1.5,0.6-2.1,2.1-3.3,2.8c-0.3,1.5-0.9,2.8-1.2,4.3c-0.6,0.6-1.6,0.9-2.1,1.6
			c-0.9,2.8-2.2,5.4-4.3,7c0.6,1.9-0.7,3.4-1.2,4.9c-0.3,1,0.1,3.7-1.6,3.9c0.9-6.7,1.2-13.3,3.3-18.5c0.4-0.9,0.3-1.2,0.6-1.6
			c0.7-1.2,0.3-4.3,1-6.6c0.3-0.9,1.3-1.6,1.6-2.7c1-3.7,0.3-8.3,2.7-10.9c-0.7-2.2,0.7-3.9,1.2-4.9c0.1-0.7-0.3-1.6,0-2.2
			c0.3-0.9,1.2-1.8,1.6-2.7c1.6-4.5,3-9.4,5.4-13.6c0.3-0.6,0.9-2.1,1.6-2.8c0.4-0.4,1.5-0.3,1-2.1
			C245.3,32.3,245.6,32.2,245.8,32.3z"/>
	</g>
</g>
</svg>
